<svg width="256" height="256" viewBox="0 0 256 256" fill="none" xmlns="http://www.w3.org/2000/svg">
  <defs>
    <linearGradient id="bg" x1="40" y1="28" x2="218" y2="228" gradientUnits="userSpaceOnUse">
      <stop stop-color="#1E5AA8"/>
      <stop offset="1" stop-color="#123A63"/>
    </linearGradient>
    <linearGradient id="accent" x1="88" y1="144" x2="168" y2="144" gradientUnits="userSpaceOnUse">
      <stop stop-color="#FFD166"/>
      <stop offset="1" stop-color="#F4A261"/>
    </linearGradient>
    <filter id="shadow" x="0" y="0" width="256" height="256" filterUnits="userSpaceOnUse" color-interpolation-filters="sRGB">
      <feDropShadow dx="0" dy="10" stdDeviation="12" flood-color="#0A223A" flood-opacity="0.22"/>
    </filter>
  </defs>

  <rect x="20" y="20" width="216" height="216" rx="52" fill="url(#bg)"/>
  <rect x="20" y="20" width="216" height="216" rx="52" fill="white" fill-opacity="0.04"/>

  <g filter="url(#shadow)" stroke="#F8FBFF" stroke-width="12" stroke-linecap="round" stroke-linejoin="round">
    <path d="M92 60H142L180 98V176C180 184.837 172.837 192 164 192H92C83.1634 192 76 184.837 76 176V76C76 67.1634 83.1634 60 92 60Z"/>
    <path d="M140 60V100H180"/>
    <path d="M104 118H128"/>
    <path d="M104 142H152"/>
  </g>

  <g stroke="url(#accent)" stroke-width="12" stroke-linecap="round" stroke-linejoin="round">
    <path d="M92 170H164"/>
    <path d="M148 154L164 170L148 186"/>
    <path d="M108 154L92 170L108 186"/>
  </g>
</svg>
